# xmcd
#
# Track frame offsets: 
#        150
#        9223
#        32418
#        50568
#        75393
#        89428
#        99818
#        126475
#        132260
#        142628
#        184130
#        188568
#        198120
#        208553
#        224378
#        241433
#        263610
#        288575
#        306635
#        328908
#
# Disc length: 4630 seconds
#
# Revision: 0
# Processed by: cddbd v1.5.1PL2 Copyright (c) Steve Scherf et al.
# Submitted via: ExactAudioCopy v0.90b4
#
DISCID=16121414
DTITLE=James Brown - James Brown CD 2
DYEAR=2003
DGENRE=Soul
TTITLE0=Introduction - Give it up or turn it loose
TTITLE1=It's too funky in here
TTITLE2=Doing it to death
TTITLE3=Try me
TTITLE4=Get on the good foot
TTITLE5=Get up offa that thing
TTITLE6=Georgia on my mind
TTITLE7=Hot pants
TTITLE8=I got that feelin'
TTITLE9=It's a man's, man's, man's world
TTITLE10=Cold sweat
TTITLE11=I can't stand myself
TTITLE12=Papa's got a brand new bag
TTITLE13=I got you (I feel good)
TTITLE14=Please, please, please
TTITLE15=Jam (1980)
TTITLE16=It's your money
TTITLE17=Killing is out, school is in
TTITLE18=Make it funky
TTITLE19=So tired of standing still we got to (Move on)
EXTD=
EXTT0=
EXTT1=
EXTT2=
EXTT3=
EXTT4=
EXTT5=
EXTT6=
EXTT7=
EXTT8=
EXTT9=
EXTT10=
EXTT11=
EXTT12=
EXTT13=
EXTT14=
EXTT15=
EXTT16=
EXTT17=
EXTT18=
EXTT19=
PLAYORDER=
